<svg xmlns="http://www.w3.org/2000/svg" viewBox="0 0 1600 800" width="1600" height="800" font-family="Segoe UI, Roboto, Helvetica Neue, Arial, sans-serif"><defs><filter id="sh" x="-10%" y="-10%" width="120%" height="130%"><feDropShadow dx="0" dy="4" stdDeviation="6" flood-color="#0f172a" flood-opacity="0.07"/></filter><filter id="shd" x="-20%" y="-20%" width="140%" height="150%"><feDropShadow dx="0" dy="14" stdDeviation="18" flood-color="#000" flood-opacity="0.35"/></filter><linearGradient id="brand" x1="0" y1="0" x2="1" y2="1"><stop offset="0" stop-color="#042F2C"/><stop offset="1" stop-color="#109985"/></linearGradient></defs><rect x="0" y="0" width="1600" height="800" rx="0" fill="#f1f5f9" /><rect x="0" y="0" width="250" height="800" rx="0" fill="#042F2C" /><circle cx="125" cy="58" r="30" fill="#fff" /><text x="125" y="68" font-size="28" font-weight="800" fill="#DB1224" text-anchor="middle">X</text><text x="125" y="114" font-size="15" fill="#fff" text-anchor="middle">eat<tspan fill="#DB1224" font-weight="700">X</tspan> by Ygen</text><rect x="30" y="158" width="14" height="14" rx="3" fill="none" stroke="#fff" stroke-opacity="0.75" stroke-width="1.8"/><text x="56" y="171" font-size="15" font-weight="400" fill="#ffffffcc" text-anchor="start">Dashboard</text><path d="M214 160 l5 5 -5 5" stroke="#ffffffaa" stroke-width="2" fill="none" stroke-linecap="round"/><rect x="30" y="204" width="14" height="14" rx="3" fill="none" stroke="#fff" stroke-opacity="0.75" stroke-width="1.8"/><text x="56" y="217" font-size="15" font-weight="400" fill="#ffffffcc" text-anchor="start">Web Orders</text><path d="M214 206 l5 5 -5 5" stroke="#ffffffaa" stroke-width="2" fill="none" stroke-linecap="round"/><rect x="30" y="250" width="14" height="14" rx="3" fill="none" stroke="#fff" stroke-opacity="0.75" stroke-width="1.8"/><text x="56" y="263" font-size="15" font-weight="400" fill="#ffffffcc" text-anchor="start">Point Of Sale</text><path d="M214 252 l5 5 -5 5" stroke="#ffffffaa" stroke-width="2" fill="none" stroke-linecap="round"/><rect x="30" y="296" width="14" height="14" rx="3" fill="none" stroke="#fff" stroke-opacity="0.75" stroke-width="1.8"/><text x="56" y="309" font-size="15" font-weight="400" fill="#ffffffcc" text-anchor="start">Call Center</text><path d="M214 298 l5 5 -5 5" stroke="#ffffffaa" stroke-width="2" fill="none" stroke-linecap="round"/><rect x="30" y="342" width="14" height="14" rx="3" fill="none" stroke="#fff" stroke-opacity="0.75" stroke-width="1.8"/><text x="56" y="355" font-size="15" font-weight="400" fill="#ffffffcc" text-anchor="start">Menu Setup</text><path d="M214 344 l5 5 -5 5" stroke="#ffffffaa" stroke-width="2" fill="none" stroke-linecap="round"/><rect x="30" y="388" width="14" height="14" rx="3" fill="none" stroke="#fff" stroke-opacity="0.75" stroke-width="1.8"/><text x="56" y="401" font-size="15" font-weight="400" fill="#ffffffcc" text-anchor="start">Inventory Setup</text><path d="M214 390 l5 5 -5 5" stroke="#ffffffaa" stroke-width="2" fill="none" stroke-linecap="round"/><rect x="14" y="422" width="222" height="38" rx="9" fill="#DB1224" /><rect x="30" y="434" width="14" height="14" rx="3" fill="none" stroke="#fff" stroke-opacity="1" stroke-width="1.8"/><text x="56" y="447" font-size="15" font-weight="600" fill="#fff" text-anchor="start">Kitchen Display</text><path d="M214 436 l5 5 -5 5" stroke="#ffffffaa" stroke-width="2" fill="none" stroke-linecap="round"/><rect x="30" y="480" width="14" height="14" rx="3" fill="none" stroke="#fff" stroke-opacity="0.75" stroke-width="1.8"/><text x="56" y="493" font-size="15" font-weight="400" fill="#ffffffcc" text-anchor="start">Accounts</text><path d="M214 482 l5 5 -5 5" stroke="#ffffffaa" stroke-width="2" fill="none" stroke-linecap="round"/><rect x="30" y="526" width="14" height="14" rx="3" fill="none" stroke="#fff" stroke-opacity="0.75" stroke-width="1.8"/><text x="56" y="539" font-size="15" font-weight="400" fill="#ffffffcc" text-anchor="start">Branch Settings</text><path d="M214 528 l5 5 -5 5" stroke="#ffffffaa" stroke-width="2" fill="none" stroke-linecap="round"/><rect x="14" y="734" width="222" height="50" rx="10" fill="#ffffff14" /><rect x="24" y="744" width="30" height="30" rx="8" fill="#DB1224" /><text x="39" y="765" font-size="15" font-weight="700" fill="#fff" text-anchor="middle">B</text><text x="64" y="756" font-size="13" font-weight="600" fill="#fff" text-anchor="start">eatX by Ygen</text><text x="64" y="773" font-size="12" font-weight="400" fill="#ffffff99" text-anchor="start">Branch admin</text><rect x="270" y="20" width="1310" height="64" rx="16" fill="#ffffff" filter="url(#sh)" stroke="#e5e7eb"/><rect x="286" y="34" width="152.8" height="36" rx="8" fill="#fff" stroke="#e5e7eb"/><rect x="298" y="46" width="12" height="12" rx="3" fill="none" stroke="#0f6b57" stroke-width="1.8"/><text x="318" y="57" font-size="14" font-weight="400" fill="#374151" text-anchor="start">All Stations</text><rect x="448.8" y="34" width="94" height="36" rx="8" fill="#fff" stroke="#e5e7eb"/><rect x="460.8" y="46" width="12" height="12" rx="3" fill="none" stroke="#0f6b57" stroke-width="1.8"/><text x="480.8" y="57" font-size="14" font-weight="400" fill="#374151" text-anchor="start">Grill</text><rect x="1344" y="34" width="104" height="36" rx="8" fill="#fff" stroke="#e5e7eb"/><text x="1396" y="57" font-size="14" font-weight="500" fill="#374151" text-anchor="middle">Refresh</text><rect x="1458" y="34" width="106" height="36" rx="8" fill="#0f6b57" /><text x="1511" y="57" font-size="14" font-weight="600" fill="#fff" text-anchor="middle">Recall</text><rect x="270" y="104" width="426" height="676" rx="18" fill="#e2e8f0" /><circle cx="294" cy="132" r="7" fill="#109985" /><text x="310" y="138" font-size="17" font-weight="700" fill="#111827" text-anchor="start">New</text><rect x="642" y="118" width="38" height="26" rx="13" fill="#fff" /><text x="661" y="135.68" font-size="13" font-weight="700" fill="#374151" text-anchor="middle">4</text><rect x="282" y="160" width="402" height="214" rx="14" fill="#ffffff" filter="url(#sh)" stroke="#e5e7eb"/><rect x="282" y="160" width="402" height="6" rx="3" fill="#109985" /><text x="300" y="200" font-size="20" font-weight="800" fill="#111827" text-anchor="start">#1051</text><text x="300" y="222" font-size="13" font-weight="400" fill="#6b7280" text-anchor="start">Dine-in · T4</text><rect x="580" y="182" width="84" height="30" rx="15" fill="#f1f5f9" /><text x="622" y="202.04" font-size="14" font-weight="700" fill="#374151" text-anchor="middle">⏱ 00:42</text><rect x="300" y="239" width="18" height="18" rx="5" fill="#fff" stroke="#9ca3af" stroke-width="1.5"/><text x="328" y="253" font-size="15" font-weight="500" fill="#111827" text-anchor="start">2× Zinger Burger</text><rect x="300" y="269" width="18" height="18" rx="5" fill="#fff" stroke="#9ca3af" stroke-width="1.5"/><text x="328" y="283" font-size="15" font-weight="500" fill="#111827" text-anchor="start">1× Loaded Fries</text><rect x="300" y="299" width="18" height="18" rx="5" fill="#fff" stroke="#9ca3af" stroke-width="1.5"/><text x="328" y="313" font-size="15" font-weight="500" fill="#111827" text-anchor="start">2× Mint Margarita</text><rect x="300" y="326" width="366" height="34" rx="9" fill="#042F2C" /><text x="483" y="348" font-size="14" font-weight="700" fill="#fff" text-anchor="middle">Start</text><rect x="282" y="388" width="402" height="184" rx="14" fill="#ffffff" filter="url(#sh)" stroke="#e5e7eb"/><rect x="282" y="388" width="402" height="6" rx="3" fill="#109985" /><text x="300" y="428" font-size="20" font-weight="800" fill="#111827" text-anchor="start">#1052</text><text x="300" y="450" font-size="13" font-weight="400" fill="#6b7280" text-anchor="start">Web order</text><rect x="580" y="410" width="84" height="30" rx="15" fill="#f1f5f9" /><text x="622" y="430.04" font-size="14" font-weight="700" fill="#374151" text-anchor="middle">⏱ 00:18</text><rect x="300" y="467" width="18" height="18" rx="5" fill="#fff" stroke="#9ca3af" stroke-width="1.5"/><text x="328" y="481" font-size="15" font-weight="500" fill="#111827" text-anchor="start">1× Chicken Karahi (Half)</text><rect x="300" y="497" width="18" height="18" rx="5" fill="#fff" stroke="#9ca3af" stroke-width="1.5"/><text x="328" y="511" font-size="15" font-weight="500" fill="#111827" text-anchor="start">4× Naan</text><rect x="300" y="524" width="366" height="34" rx="9" fill="#042F2C" /><text x="483" y="546" font-size="14" font-weight="700" fill="#fff" text-anchor="middle">Start</text><rect x="712" y="104" width="426" height="676" rx="18" fill="#e2e8f0" /><circle cx="736" cy="132" r="7" fill="#b8860b" /><text x="752" y="138" font-size="17" font-weight="700" fill="#111827" text-anchor="start">Preparing</text><rect x="1084" y="118" width="38" height="26" rx="13" fill="#fff" /><text x="1103" y="135.68" font-size="13" font-weight="700" fill="#374151" text-anchor="middle">3</text><rect x="724" y="160" width="402" height="214" rx="14" fill="#ffffff" filter="url(#sh)" stroke="#e5e7eb"/><rect x="724" y="160" width="402" height="6" rx="3" fill="#b8860b" /><text x="742" y="200" font-size="20" font-weight="800" fill="#111827" text-anchor="start">#1047</text><text x="742" y="222" font-size="13" font-weight="400" fill="#6b7280" text-anchor="start">Takeaway</text><rect x="1022" y="182" width="84" height="30" rx="15" fill="#fee2e2" /><text x="1064" y="202.04" font-size="14" font-weight="700" fill="#DB1224" text-anchor="middle">⏱ 06:12</text><rect x="742" y="239" width="18" height="18" rx="5" fill="#0f6b57" /><path d="M747 248 l2.8000000000000003 2.8000000000000003 5.2 -5.6000000000000005" stroke="#fff" stroke-width="1.7600000000000002" fill="none" stroke-linecap="round" stroke-linejoin="round"/><text x="770" y="253" font-size="15" font-weight="500" fill="#6b7280" text-anchor="start">1× Sindhi Biryani</text><rect x="742" y="269" width="18" height="18" rx="5" fill="#fff" stroke="#9ca3af" stroke-width="1.5"/><text x="770" y="283" font-size="15" font-weight="500" fill="#111827" text-anchor="start">1× Raita</text><rect x="742" y="299" width="18" height="18" rx="5" fill="#fff" stroke="#9ca3af" stroke-width="1.5"/><text x="770" y="313" font-size="15" font-weight="500" fill="#111827" text-anchor="start">1× Kulfi Falooda</text><rect x="742" y="326" width="366" height="34" rx="9" fill="#DB1224" /><text x="925" y="348" font-size="14" font-weight="700" fill="#fff" text-anchor="middle">Bump</text><rect x="724" y="388" width="402" height="184" rx="14" fill="#ffffff" filter="url(#sh)" stroke="#e5e7eb"/><rect x="724" y="388" width="402" height="6" rx="3" fill="#b8860b" /><text x="742" y="428" font-size="20" font-weight="800" fill="#111827" text-anchor="start">#1049</text><text x="742" y="450" font-size="13" font-weight="400" fill="#6b7280" text-anchor="start">Dine-in · T9</text><rect x="1022" y="410" width="84" height="30" rx="15" fill="#f1f5f9" /><text x="1064" y="430.04" font-size="14" font-weight="700" fill="#374151" text-anchor="middle">⏱ 04:05</text><rect x="742" y="467" width="18" height="18" rx="5" fill="#0f6b57" /><path d="M747 476 l2.8000000000000003 2.8000000000000003 5.2 -5.6000000000000005" stroke="#fff" stroke-width="1.7600000000000002" fill="none" stroke-linecap="round" stroke-linejoin="round"/><text x="770" y="481" font-size="15" font-weight="500" fill="#6b7280" text-anchor="start">1× Mutton Karahi</text><rect x="742" y="497" width="18" height="18" rx="5" fill="#fff" stroke="#9ca3af" stroke-width="1.5"/><text x="770" y="511" font-size="15" font-weight="500" fill="#111827" text-anchor="start">2× Roghni Naan</text><rect x="742" y="524" width="366" height="34" rx="9" fill="#DB1224" /><text x="925" y="546" font-size="14" font-weight="700" fill="#fff" text-anchor="middle">Bump</text><rect x="1154" y="104" width="426" height="676" rx="18" fill="#e2e8f0" /><circle cx="1178" cy="132" r="7" fill="#0f6b57" /><text x="1194" y="138" font-size="17" font-weight="700" fill="#111827" text-anchor="start">Ready</text><rect x="1526" y="118" width="38" height="26" rx="13" fill="#fff" /><text x="1545" y="135.68" font-size="13" font-weight="700" fill="#374151" text-anchor="middle">3</text><rect x="1166" y="160" width="402" height="184" rx="14" fill="#ffffff" filter="url(#sh)" stroke="#e5e7eb"/><rect x="1166" y="160" width="402" height="6" rx="3" fill="#0f6b57" /><text x="1184" y="200" font-size="20" font-weight="800" fill="#111827" text-anchor="start">#1044</text><text x="1184" y="222" font-size="13" font-weight="400" fill="#6b7280" text-anchor="start">Delivery · Rider 3</text><rect x="1464" y="182" width="84" height="30" rx="15" fill="#f1f5f9" /><text x="1506" y="202.04" font-size="14" font-weight="700" fill="#374151" text-anchor="middle">⏱ 11:30</text><rect x="1184" y="239" width="18" height="18" rx="5" fill="#0f6b57" /><path d="M1189 248 l2.8000000000000003 2.8000000000000003 5.2 -5.6000000000000005" stroke="#fff" stroke-width="1.7600000000000002" fill="none" stroke-linecap="round" stroke-linejoin="round"/><text x="1212" y="253" font-size="15" font-weight="500" fill="#6b7280" text-anchor="start">2× Beef Smash</text><rect x="1184" y="269" width="18" height="18" rx="5" fill="#0f6b57" /><path d="M1189 278 l2.8000000000000003 2.8000000000000003 5.2 -5.6000000000000005" stroke="#fff" stroke-width="1.7600000000000002" fill="none" stroke-linecap="round" stroke-linejoin="round"/><text x="1212" y="283" font-size="15" font-weight="500" fill="#6b7280" text-anchor="start">2× Peach Iced Tea</text><rect x="1184" y="296" width="366" height="34" rx="9" fill="#e6f4f1" /><text x="1367" y="318" font-size="14" font-weight="700" fill="#0f6b57" text-anchor="middle">Served</text><rect x="1166" y="358" width="402" height="184" rx="14" fill="#ffffff" filter="url(#sh)" stroke="#e5e7eb"/><rect x="1166" y="358" width="402" height="6" rx="3" fill="#0f6b57" /><text x="1184" y="398" font-size="20" font-weight="800" fill="#111827" text-anchor="start">#1045</text><text x="1184" y="420" font-size="13" font-weight="400" fill="#6b7280" text-anchor="start">Dine-in · T2</text><rect x="1464" y="380" width="84" height="30" rx="15" fill="#f1f5f9" /><text x="1506" y="400.04" font-size="14" font-weight="700" fill="#374151" text-anchor="middle">⏱ 09:48</text><rect x="1184" y="437" width="18" height="18" rx="5" fill="#0f6b57" /><path d="M1189 446 l2.8000000000000003 2.8000000000000003 5.2 -5.6000000000000005" stroke="#fff" stroke-width="1.7600000000000002" fill="none" stroke-linecap="round" stroke-linejoin="round"/><text x="1212" y="451" font-size="15" font-weight="500" fill="#6b7280" text-anchor="start">1× Chicken Biryani</text><rect x="1184" y="467" width="18" height="18" rx="5" fill="#0f6b57" /><path d="M1189 476 l2.8000000000000003 2.8000000000000003 5.2 -5.6000000000000005" stroke="#fff" stroke-width="1.7600000000000002" fill="none" stroke-linecap="round" stroke-linejoin="round"/><text x="1212" y="481" font-size="15" font-weight="500" fill="#6b7280" text-anchor="start">1× Mint Margarita</text><rect x="1184" y="494" width="366" height="34" rx="9" fill="#e6f4f1" /><text x="1367" y="516" font-size="14" font-weight="700" fill="#0f6b57" text-anchor="middle">Served</text><rect x="640" y="36" width="170" height="32" rx="16" fill="#e6f4f1" /><text x="725" y="56.68" font-size="13" font-weight="600" fill="#0f6b57" text-anchor="middle">Avg prep 7m 40s</text></svg>