<svg xmlns="http://www.w3.org/2000/svg" viewBox="0 0 640 330" width="640" height="330" font-family="Segoe UI, Roboto, Helvetica Neue, Arial, sans-serif"><defs><filter id="sh" x="-10%" y="-10%" width="120%" height="130%"><feDropShadow dx="0" dy="4" stdDeviation="6" flood-color="#0f172a" flood-opacity="0.07"/></filter><filter id="shd" x="-20%" y="-20%" width="140%" height="150%"><feDropShadow dx="0" dy="14" stdDeviation="18" flood-color="#000" flood-opacity="0.35"/></filter><linearGradient id="brand" x1="0" y1="0" x2="1" y2="1"><stop offset="0" stop-color="#042F2C"/><stop offset="1" stop-color="#109985"/></linearGradient><linearGradient id="gm" x1="0" y1="0" x2="1" y2="1"><stop offset="0" stop-color="#042F2C"/><stop offset="1" stop-color="#0d5c52"/></linearGradient><pattern id="gmd" width="22" height="22" patternUnits="userSpaceOnUse"><circle cx="2" cy="2" r="1.4" fill="#fff" fill-opacity="0.09"/></pattern></defs><rect x="0" y="0" width="640" height="330" rx="0" fill="url(#gm)" /><rect x="0" y="0" width="640" height="330" rx="0" fill="url(#gmd)" /><circle cx="580" cy="40" r="120" fill="#fff" fill-opacity="0.05"/><rect x="70" y="50" width="300" height="230" rx="18" fill="#fff" filter="url(#shd)"/><text x="92" y="84" font-size="15" font-weight="700" fill="#111827" text-anchor="start">Weekly revenue</text><text x="92" y="104" font-size="12" font-weight="600" fill="#0f6b57" text-anchor="start">+18.4% vs last week</text><rect x="96" y="199.5" width="24" height="58.5" rx="6" fill="#109985" /><rect x="134" y="177.4" width="24" height="80.6" rx="6" fill="#109985" /><rect x="172" y="193" width="24" height="65" rx="6" fill="#109985" /><rect x="210" y="156.6" width="24" height="101.4" rx="6" fill="#109985" /><rect x="248" y="167" width="24" height="91" rx="6" fill="#109985" /><rect x="286" y="138.39999999999998" width="24" height="119.60000000000001" rx="6" fill="#DB1224" /><rect x="324" y="147.5" width="24" height="110.5" rx="6" fill="#109985" /><rect x="330" y="120" width="250" height="150" rx="18" fill="#fff" filter="url(#shd)"/><text x="352" y="152" font-size="15" font-weight="700" fill="#111827" text-anchor="start">Staff on shift</text><circle cx="370" cy="192" r="20" fill="#042F2C" stroke="#fff" stroke-width="3"/><text x="370" y="197" font-size="12" font-weight="700" fill="#fff" text-anchor="middle">AK</text><circle cx="404" cy="192" r="20" fill="#109985" stroke="#fff" stroke-width="3"/><text x="404" y="197" font-size="12" font-weight="700" fill="#fff" text-anchor="middle">SR</text><circle cx="438" cy="192" r="20" fill="#DB1224" stroke="#fff" stroke-width="3"/><text x="438" y="197" font-size="12" font-weight="700" fill="#fff" text-anchor="middle">ZM</text><circle cx="472" cy="192" r="20" fill="#b8860b" stroke="#fff" stroke-width="3"/><text x="472" y="197" font-size="12" font-weight="700" fill="#fff" text-anchor="middle">BM</text><text x="510" y="197" font-size="14" font-weight="700" fill="#6b7280" text-anchor="start">+6</text><rect x="352" y="228" width="206" height="8" rx="4" fill="#f1f5f9" /><rect x="352" y="228" width="160" height="8" rx="4" fill="#0f6b57" /><text x="352" y="256" font-size="12" font-weight="500" fill="#6b7280" text-anchor="start">Attendance 78%</text><rect x="420" y="60" width="150" height="36" rx="18" fill="#fff" /><text x="495" y="82.68" font-size="13" font-weight="700" fill="#0f6b57" text-anchor="middle">✓ Payroll ready</text></svg>