<svg xmlns="http://www.w3.org/2000/svg" viewBox="0 0 600 900" width="600" height="900" font-family="Segoe UI, Roboto, Helvetica Neue, Arial, sans-serif"><defs><filter id="sh" x="-10%" y="-10%" width="120%" height="130%"><feDropShadow dx="0" dy="4" stdDeviation="6" flood-color="#0f172a" flood-opacity="0.07"/></filter><filter id="shd" x="-20%" y="-20%" width="140%" height="150%"><feDropShadow dx="0" dy="14" stdDeviation="18" flood-color="#000" flood-opacity="0.35"/></filter><linearGradient id="brand" x1="0" y1="0" x2="1" y2="1"><stop offset="0" stop-color="#042F2C"/><stop offset="1" stop-color="#109985"/></linearGradient><radialGradient id="glow" cx="0.75" cy="0.15" r="0.7"><stop offset="0" stop-color="#1db39e" stop-opacity="0.55"/><stop offset="1" stop-color="#1db39e" stop-opacity="0"/></radialGradient><radialGradient id="glow2" cx="0.1" cy="0.7" r="0.6"><stop offset="0" stop-color="#DB1224" stop-opacity="0.25"/><stop offset="1" stop-color="#DB1224" stop-opacity="0"/></radialGradient></defs><rect x="0" y="0" width="600" height="900" rx="0" fill="#042F2C" /><rect x="0" y="0" width="600" height="900" rx="0" fill="url(#glow)" /><rect x="0" y="0" width="600" height="900" rx="0" fill="url(#glow2)" /><rect x="150" y="70" width="300" height="600" rx="44" fill="#0b1f1d" filter="url(#shd)"/><rect x="164" y="84" width="272" height="572" rx="34" fill="#f1f5f9" /><rect x="255" y="96" width="90" height="22" rx="11" fill="#0b1f1d" /><text x="186" y="160" font-size="22" font-weight="800" fill="#111827" text-anchor="start">Live orders</text><rect x="350" y="140" width="66" height="28" rx="14" fill="#fee2e2" /><text x="383" y="158.68" font-size="13" font-weight="700" fill="#DB1224" text-anchor="middle">● 8</text><rect x="180" y="186" width="240" height="72" rx="16" fill="#fff" filter="url(#sh)"/><rect x="194" y="200" width="44" height="44" rx="12" fill="#fde8ea" /><rect x="208" y="214" width="16" height="16" rx="4" fill="none" stroke="#DB1224" stroke-width="2.2"/><text x="250" y="218" font-size="16" font-weight="700" fill="#111827" text-anchor="start">#1052</text><text x="250" y="238" font-size="13" font-weight="400" fill="#6b7280" text-anchor="start">Web · 2 items</text><rect x="336" y="208" width="72" height="28" rx="14" fill="#fde8ea" /><text x="372" y="226.32" font-size="12" font-weight="700" fill="#DB1224" text-anchor="middle">New</text><rect x="180" y="270" width="240" height="72" rx="16" fill="#fff" filter="url(#sh)"/><rect x="194" y="284" width="44" height="44" rx="12" fill="#fef3c7" /><rect x="208" y="298" width="16" height="16" rx="4" fill="none" stroke="#b8860b" stroke-width="2.2"/><text x="250" y="302" font-size="16" font-weight="700" fill="#111827" text-anchor="start">#1051</text><text x="250" y="322" font-size="13" font-weight="400" fill="#6b7280" text-anchor="start">Dine-in T4</text><rect x="336" y="292" width="72" height="28" rx="14" fill="#fef3c7" /><text x="372" y="310.32" font-size="12" font-weight="700" fill="#b8860b" text-anchor="middle">Cooking</text><rect x="180" y="354" width="240" height="72" rx="16" fill="#fff" filter="url(#sh)"/><rect x="194" y="368" width="44" height="44" rx="12" fill="#fef3c7" /><rect x="208" y="382" width="16" height="16" rx="4" fill="none" stroke="#b8860b" stroke-width="2.2"/><text x="250" y="386" font-size="16" font-weight="700" fill="#111827" text-anchor="start">#1049</text><text x="250" y="406" font-size="13" font-weight="400" fill="#6b7280" text-anchor="start">Takeaway</text><rect x="336" y="376" width="72" height="28" rx="14" fill="#fef3c7" /><text x="372" y="394.32" font-size="12" font-weight="700" fill="#b8860b" text-anchor="middle">Cooking</text><rect x="180" y="438" width="240" height="72" rx="16" fill="#fff" filter="url(#sh)"/><rect x="194" y="452" width="44" height="44" rx="12" fill="#e6f4f1" /><rect x="208" y="466" width="16" height="16" rx="4" fill="none" stroke="#0f6b57" stroke-width="2.2"/><text x="250" y="470" font-size="16" font-weight="700" fill="#111827" text-anchor="start">#1047</text><text x="250" y="490" font-size="13" font-weight="400" fill="#6b7280" text-anchor="start">Delivery</text><rect x="336" y="460" width="72" height="28" rx="14" fill="#e6f4f1" /><text x="372" y="478.32" font-size="12" font-weight="700" fill="#0f6b57" text-anchor="middle">Ready</text><rect x="180" y="522" width="240" height="72" rx="16" fill="#fff" filter="url(#sh)"/><rect x="194" y="536" width="44" height="44" rx="12" fill="#f1f5f9" /><rect x="208" y="550" width="16" height="16" rx="4" fill="none" stroke="#6b7280" stroke-width="2.2"/><text x="250" y="554" font-size="16" font-weight="700" fill="#111827" text-anchor="start">#1044</text><text x="250" y="574" font-size="13" font-weight="400" fill="#6b7280" text-anchor="start">Dine-in T2</text><rect x="336" y="544" width="72" height="28" rx="14" fill="#f1f5f9" /><text x="372" y="562.32" font-size="12" font-weight="700" fill="#6b7280" text-anchor="middle">Served</text><rect x="30" y="236" width="200" height="64" rx="18" fill="#fff" filter="url(#shd)"/><circle cx="64" cy="268" r="18" fill="#0f6b57" /><path d="M58.5 268 l3.8500000000000005 3.8500000000000005 7.15 -7.700000000000001" stroke="#fff" stroke-width="2.4200000000000004" fill="none" stroke-linecap="round" stroke-linejoin="round"/><text x="92" y="262" font-size="15" font-weight="700" fill="#111827" text-anchor="start">Order ready</text><text x="92" y="282" font-size="12" font-weight="400" fill="#6b7280" text-anchor="start">#1047 · 6m 12s</text><rect x="400" y="360" width="172" height="60" rx="18" fill="#DB1224" filter="url(#shd)"/><text x="486" y="386" font-size="13" font-weight="600" fill="#ffffffcc" text-anchor="middle">New web order</text><text x="486" y="406" font-size="16" font-weight="800" fill="#fff" text-anchor="middle">Rs 1,850</text></svg>